<svg id="visual" viewBox="0 0 900 600" width="900" height="600" xmlns="http://www.w3.org/2000/svg" xmlns:xlink="http://www.w3.org/1999/xlink" version="1.1"><rect x="0" y="0" width="900" height="600" fill="#00296b"></rect><path d="M0 196L21.5 201.7C43 207.3 86 218.7 128.8 220.7C171.7 222.7 214.3 215.3 257.2 206.2C300 197 343 186 385.8 189.5C428.7 193 471.3 211 514.2 217.7C557 224.3 600 219.7 642.8 218.3C685.7 217 728.3 219 771.2 218C814 217 857 213 878.5 211L900 209L900 0L878.5 0C857 0 814 0 771.2 0C728.3 0 685.7 0 642.8 0C600 0 557 0 514.2 0C471.3 0 428.7 0 385.8 0C343 0 300 0 257.2 0C214.3 0 171.7 0 128.8 0C86 0 43 0 21.5 0L0 0Z" fill="#003f88"></path><path d="M0 180L21.5 169.8C43 159.7 86 139.3 128.8 139.7C171.7 140 214.3 161 257.2 173.2C300 185.3 343 188.7 385.8 186.7C428.7 184.7 471.3 177.3 514.2 179C557 180.7 600 191.3 642.8 191.3C685.7 191.3 728.3 180.7 771.2 168.7C814 156.7 857 143.3 878.5 136.7L900 130L900 0L878.5 0C857 0 814 0 771.2 0C728.3 0 685.7 0 642.8 0C600 0 557 0 514.2 0C471.3 0 428.7 0 385.8 0C343 0 300 0 257.2 0C214.3 0 171.7 0 128.8 0C86 0 43 0 21.5 0L0 0Z" fill="#00438d"></path><path d="M0 119L21.5 123.8C43 128.7 86 138.3 128.8 138.3C171.7 138.3 214.3 128.7 257.2 120C300 111.3 343 103.7 385.8 107C428.7 110.3 471.3 124.7 514.2 130.8C557 137 600 135 642.8 132C685.7 129 728.3 125 771.2 128.3C814 131.7 857 142.3 878.5 147.7L900 153L900 0L878.5 0C857 0 814 0 771.2 0C728.3 0 685.7 0 642.8 0C600 0 557 0 514.2 0C471.3 0 428.7 0 385.8 0C343 0 300 0 257.2 0C214.3 0 171.7 0 128.8 0C86 0 43 0 21.5 0L0 0Z" fill="#004792"></path><path d="M0 89L21.5 86.2C43 83.3 86 77.7 128.8 80C171.7 82.3 214.3 92.7 257.2 94C300 95.3 343 87.7 385.8 82.5C428.7 77.3 471.3 74.7 514.2 75.5C557 76.3 600 80.7 642.8 83.2C685.7 85.7 728.3 86.3 771.2 90.5C814 94.7 857 102.3 878.5 106.2L900 110L900 0L878.5 0C857 0 814 0 771.2 0C728.3 0 685.7 0 642.8 0C600 0 557 0 514.2 0C471.3 0 428.7 0 385.8 0C343 0 300 0 257.2 0C214.3 0 171.7 0 128.8 0C86 0 43 0 21.5 0L0 0Z" fill="#004b97"></path><path d="M0 28L21.5 33.7C43 39.3 86 50.7 128.8 53C171.7 55.3 214.3 48.7 257.2 43C300 37.3 343 32.7 385.8 32C428.7 31.3 471.3 34.7 514.2 39C557 43.3 600 48.7 642.8 52.7C685.7 56.7 728.3 59.3 771.2 60.5C814 61.7 857 61.3 878.5 61.2L900 61L900 0L878.5 0C857 0 814 0 771.2 0C728.3 0 685.7 0 642.8 0C600 0 557 0 514.2 0C471.3 0 428.7 0 385.8 0C343 0 300 0 257.2 0C214.3 0 171.7 0 128.8 0C86 0 43 0 21.5 0L0 0Z" fill="#00509d"></path></svg>